<svg width="174" height="34" viewBox="0 0 174 34" fill="none" xmlns="http://www.w3.org/2000/svg">
<path fill-rule="evenodd" clip-rule="evenodd" d="M151.438 3.82806V11.6938H160.938L152.061 30.9858H173.775V23.2901H164.891L173.775 3.82806H151.438Z" fill="#FC6A03" stroke="black" stroke-width="0.000296422" stroke-miterlimit="1.5" stroke-linecap="round" stroke-linejoin="round"/>
<path fill-rule="evenodd" clip-rule="evenodd" d="M128.154 3.91614H136.7V21.3456C136.7 21.3456 136.764 22.0081 136.806 22.233C136.835 22.3907 136.886 22.5443 136.948 22.6925C137.013 22.8543 137.099 23.0614 137.2 23.1999C137.295 23.3288 137.419 23.4427 137.559 23.5263C137.702 23.6114 137.889 23.6649 138.061 23.7101C138.246 23.7581 138.489 23.8171 138.673 23.8171C138.842 23.8171 139.007 23.7581 139.166 23.7101C139.325 23.6621 139.498 23.5963 139.627 23.5263C139.742 23.4646 139.853 23.3906 139.938 23.2946C140.04 23.1807 140.165 23.0052 140.238 22.842C140.319 22.6637 140.365 22.4374 140.413 22.233C140.46 22.03 140.505 21.7831 140.523 21.6172C140.538 21.4896 140.523 21.3607 140.523 21.2331V3.91614H149.057V22.233C149.057 22.233 148.988 23.2946 148.892 23.8171C148.791 24.3548 148.67 24.9335 148.457 25.463C148.209 26.0774 147.798 26.9058 147.405 27.5024C147.036 28.062 146.57 28.5914 146.095 29.0454C145.631 29.4884 145.112 29.8889 144.554 30.2236C143.97 30.5719 143.188 30.9134 142.592 31.1384C142.071 31.3345 141.525 31.4703 140.977 31.5731C140.405 31.6801 139.763 31.746 139.166 31.7803C138.576 31.8145 137.984 31.8145 137.394 31.7803C136.799 31.746 136.171 31.6801 135.592 31.5731C135.024 31.4689 134.457 31.3427 133.92 31.1384C133.329 30.9134 132.589 30.5719 132.04 30.2236C131.518 29.8917 131.021 29.4582 130.624 29.0454C130.249 28.6545 129.933 28.2101 129.66 27.7507C129.355 27.235 129.019 26.5808 128.797 25.9594C128.573 25.3272 128.427 24.5756 128.31 23.9543C128.202 23.3851 128.144 22.6458 128.097 22.233C128.069 21.982 128.031 21.4787 128.031 21.4787V3.91614H128.154Z" fill="#FC6A03" stroke="black" stroke-width="0.000296422" stroke-miterlimit="1.5" stroke-linecap="round" stroke-linejoin="round"/>
<path fill-rule="evenodd" clip-rule="evenodd" d="M109.472 3.18865C109.658 3.18865 109.845 3.18316 110.032 3.18865C110.242 3.19688 110.512 3.21608 110.735 3.23391C110.947 3.25174 111.188 3.27916 111.372 3.29699C111.528 3.31345 111.693 3.32716 111.839 3.34774C111.976 3.36694 112.112 3.39574 112.247 3.41769C112.383 3.43963 112.526 3.45473 112.659 3.48216C112.787 3.50822 112.913 3.54662 113.04 3.57816C113.17 3.60971 113.321 3.64538 113.44 3.67143C113.543 3.69612 113.648 3.71258 113.752 3.74001C113.885 3.77704 114.08 3.84424 114.241 3.8895C114.397 3.93339 114.557 3.96082 114.712 4.0102C114.87 4.0582 115.043 4.1309 115.192 4.18576C115.329 4.23651 115.471 4.27902 115.604 4.338C115.754 4.40658 115.95 4.52315 116.094 4.59173C116.217 4.64933 116.349 4.69048 116.472 4.74946C116.614 4.81804 116.8 4.92226 116.943 4.9977C117.073 5.06628 117.203 5.13211 117.33 5.2048C117.482 5.29258 117.695 5.42288 117.851 5.52301C117.994 5.61353 118.136 5.70404 118.273 5.80142C118.411 5.90017 118.56 6.0195 118.69 6.11962C118.811 6.21151 118.929 6.30751 119.051 6.39803C119.182 6.49815 119.347 6.60514 119.48 6.71486C119.608 6.82184 119.723 6.94391 119.844 7.05775C119.983 7.18804 120.158 7.34713 120.31 7.49526C120.462 7.64338 120.616 7.79975 120.757 7.94787C120.889 8.08777 121.016 8.2359 121.146 8.37854C121.289 8.53626 121.483 8.73239 121.613 8.88737C121.727 9.02178 121.826 9.16855 121.93 9.30981C122.033 9.44971 122.138 9.58823 122.238 9.73087C122.338 9.87625 122.438 10.0271 122.532 10.178C122.633 10.3371 122.746 10.5291 122.839 10.6841C122.922 10.8253 123.011 10.9625 123.088 11.1079C123.167 11.2588 123.24 11.4343 123.318 11.5921C123.392 11.7484 123.477 11.8993 123.55 12.0556C123.623 12.2133 123.697 12.3711 123.754 12.5343C123.811 12.6975 123.839 12.8703 123.89 13.0363C123.949 13.2255 124.044 13.4848 124.106 13.6699C124.16 13.8276 124.222 13.9826 124.263 14.1431C124.31 14.3296 124.349 14.5779 124.387 14.7863C124.425 14.9907 124.463 15.2074 124.494 15.3994C124.523 15.5777 124.546 15.7574 124.57 15.9357C124.596 16.1387 124.641 16.3952 124.656 16.616C124.669 16.8299 124.656 17.0713 124.656 17.2592C124.656 17.4197 124.663 17.5815 124.656 17.742C124.641 18.0273 124.596 18.6801 124.57 18.9682C124.554 19.1341 124.52 19.3001 124.494 19.4647C124.463 19.6553 124.427 19.9063 124.387 20.1134C124.351 20.3123 124.31 20.5111 124.263 20.71C124.217 20.9089 124.16 21.1078 124.106 21.3066C124.053 21.5082 124.001 21.7236 123.942 21.9129C123.887 22.0898 123.821 22.2626 123.754 22.4354C123.672 22.6439 123.56 22.9196 123.453 23.1568C123.342 23.4037 123.217 23.6725 123.088 23.9153C122.962 24.1553 122.807 24.4145 122.68 24.6216C122.568 24.8041 122.443 24.981 122.324 25.1593C122.198 25.3444 122.076 25.5529 121.93 25.7353C121.712 26.0069 121.288 26.491 121.018 26.7941C120.787 27.0534 120.562 27.3167 120.31 27.5553C120.015 27.8338 119.592 28.1972 119.252 28.466C118.938 28.7143 118.56 28.9666 118.273 29.1696C118.025 29.3438 117.782 29.5276 117.521 29.6826C117.193 29.8773 116.675 30.1626 116.303 30.3409C115.974 30.5 115.599 30.6344 115.288 30.7579C115.008 30.869 114.73 30.9883 114.441 31.0788C114.082 31.1899 113.577 31.3298 113.136 31.4272C112.689 31.5246 112.205 31.6082 111.763 31.6686C111.338 31.7275 110.911 31.7756 110.482 31.7906C109.893 31.8112 108.981 31.84 108.239 31.7906C107.494 31.7399 106.75 31.6439 106.02 31.4903C105.276 31.3339 104.488 31.12 103.767 30.8511C103.052 30.5823 102.363 30.2463 101.702 29.8732C101.021 29.4878 100.272 28.9982 99.6724 28.5387C99.1062 28.1067 98.5633 27.6404 98.0963 27.1165C97.4893 26.4375 96.5582 25.2882 96.0314 24.4612C95.5703 23.7384 95.2069 22.8633 94.934 22.1542C94.6918 21.5261 94.5254 20.8705 94.3955 20.2121C94.2657 19.5456 94.1927 18.7583 94.1518 18.1589C94.1168 17.6446 94.1153 17.1289 94.1518 16.616C94.1927 16.0386 94.2671 15.3267 94.3955 14.6931C94.5269 14.0512 94.7078 13.3915 94.934 12.762C95.1631 12.1283 95.4316 11.4905 95.7658 10.8912C96.1146 10.2685 96.6005 9.56766 97.0223 9.02042C97.4075 8.52118 97.8439 8.05623 98.3006 7.61323C98.7735 7.15376 99.3557 6.65451 99.8577 6.26774C100.32 5.91114 100.806 5.5806 101.319 5.28984C101.885 4.9689 102.604 4.60819 103.262 4.338C103.909 4.07329 104.636 3.83739 105.26 3.67143C105.829 3.52057 106.426 3.42866 107.004 3.34774C107.575 3.26819 108.316 3.21608 108.727 3.18865C108.975 3.17356 109.254 3.18865 109.472 3.18865ZM109.162 11.1134H110.16L111.084 11.3603L111.804 11.6126L112.614 11.987L113.097 12.3423L113.66 12.7469L114.104 13.1693L114.519 13.6823L114.871 14.1609L115.291 14.9304L115.573 15.7396L115.785 16.6818V17.6199C115.785 17.7832 115.798 17.9765 115.785 18.1411C115.773 18.2989 115.736 18.4538 115.706 18.6088C115.671 18.7899 115.623 19.0422 115.573 19.2288C115.529 19.3974 115.475 19.5648 115.414 19.728C115.348 19.9035 115.275 20.101 115.183 20.278C115.078 20.4755 114.934 20.7114 114.789 20.9171C114.632 21.1407 114.438 21.3999 114.238 21.6207C114.023 21.8566 113.752 22.1227 113.504 22.3325C113.267 22.5314 113.021 22.7248 112.749 22.8784C112.437 23.054 111.973 23.257 111.633 23.3859C111.334 23.4983 111.023 23.593 110.706 23.652C110.372 23.715 109.991 23.7768 109.631 23.7644C109.126 23.7452 108.171 23.6369 107.681 23.5422C107.335 23.4764 107.003 23.3488 106.687 23.2007C106.344 23.0402 105.933 22.792 105.631 22.5808C105.356 22.3874 105.075 22.12 104.872 21.9293C104.71 21.7757 104.558 21.6125 104.422 21.4383C104.249 21.2175 103.999 20.8952 103.831 20.6003C103.65 20.2835 103.47 19.9035 103.341 19.5373C103.211 19.1711 103.113 18.7871 103.055 18.4031C102.994 18.0067 102.959 17.5623 102.978 17.1591C102.997 16.7641 103.078 16.3581 103.173 15.9864C103.265 15.6257 103.386 15.2691 103.547 14.9304C103.722 14.5614 104.005 14.0896 104.225 13.7714C104.412 13.5012 104.64 13.2571 104.872 13.0212C105.107 12.7825 105.38 12.5315 105.631 12.3423C105.863 12.1667 106.118 12.0159 106.379 11.8828C106.662 11.7388 107.001 11.592 107.326 11.4823C107.659 11.3699 108.071 11.2711 108.377 11.2094C108.635 11.1573 109.162 11.1134 109.162 11.1134Z" fill="#FC6A03" stroke="black" stroke-width="0.000296422" stroke-miterlimit="1.5" stroke-linecap="round" stroke-linejoin="round"/>
<path d="M74.111 33.128C83.6301 33.128 91.3469 25.8754 91.3469 16.9288C91.3469 7.98215 83.6301 0.729492 74.111 0.729492C64.5918 0.729492 56.875 7.98215 56.875 16.9288C56.875 25.8754 64.5918 33.128 74.111 33.128Z" fill="#F9F7F7" stroke="black" stroke-width="0.00237474" stroke-miterlimit="1.5" stroke-linecap="round" stroke-linejoin="round"/>
<path fill-rule="evenodd" clip-rule="evenodd" d="M71.7323 29.2053H63.5938V4.84137H71.7323V13.1008H76.4328V4.84137H84.6647V29.2053H76.4328V20.2314H71.7323V29.2053ZM80.8778 26.2963V7.75998H79.7819V16.173H68.4226V7.75998H67.4186V26.2963H68.4226V17.1783H79.7819V26.2963H80.8778Z" fill="black" stroke="black" stroke-width="0.000296422" stroke-miterlimit="1.5" stroke-linecap="round" stroke-linejoin="round"/>
<path fill-rule="evenodd" clip-rule="evenodd" d="M33.4688 3.85742H55.3102V11.656H48.6908V31.1551H40.1013V11.656H33.4688V3.85742Z" fill="#FC6A03" stroke="black" stroke-width="0.000296422" stroke-miterlimit="1.5" stroke-linecap="round" stroke-linejoin="round"/>
<path fill-rule="evenodd" clip-rule="evenodd" d="M31.1423 3.87213H22.755L21.2743 4.06139L20.0711 4.34119L18.9303 4.71287L17.8137 5.37121L16.8539 6.09813L16.1244 6.88676L15.5221 7.80706L15.0605 8.81652L14.7128 9.94804L14.5312 11.347V23.0366L14.6244 24.1544L14.7128 24.9458L14.9693 25.7577L15.2716 26.6232L15.7648 27.4872L16.4537 28.413L17.3791 29.2318L18.2297 29.7997L19.1005 30.2207L20.2821 30.6267L21.3983 30.8928L22.3587 31.0423L23.3947 31.119H31.1423V23.3671H24.5509L23.5689 23.1806L23.0691 22.8062L22.9248 22.44V22.0628V21.7186L23.0691 21.3153L23.3947 20.9148L23.7569 20.7448L24.2773 20.635H30.5702V14.4535H25.3408H24.7921L24.2773 14.337L23.9114 14.16L23.5689 13.8501L23.3947 13.4071V12.9394L23.5 12.4072L23.9114 12.0602L24.2773 11.8065L24.7921 11.6885H31.1423V3.87213Z" fill="#FC6A03" stroke="black" stroke-width="0.000296422" stroke-miterlimit="1.5" stroke-linecap="round" stroke-linejoin="round"/>
<path fill-rule="evenodd" clip-rule="evenodd" d="M0 3.87213V22.595L0.251727 24.1201L0.652022 25.4903L1.39261 26.8893L2.0874 27.9563L3.00633 28.8615L4.01193 29.62L5.13399 30.2043L6.21374 30.6267L7.32194 30.8722L8.59052 31.0628H12.2102V28.627V25.4903V23.289H10.5216L9.88099 23.23L9.56358 23.1367L9.18081 22.942L8.84721 22.595L8.65604 22.0669L8.59052 21.3647V20.5541V20.0165V17.8659V15.2175V12.8763V10.0001V3.87213H0Z" fill="#FC6A03" stroke="black" stroke-width="0.000296422" stroke-miterlimit="1.5" stroke-linecap="round" stroke-linejoin="round"/>
</svg>
