<svg width="177" height="45" viewBox="0 0 177 45" fill="none" xmlns="http://www.w3.org/2000/svg">
<path fill-rule="evenodd" clip-rule="evenodd" d="M176.25 22.1548C176.25 10.472 166.778 1 155.095 1H22.7484C10.7371 1 1 10.7374 1 22.7484C1 34.4851 10.5147 44 22.2518 44C55.7595 44 120.532 44 154.405 44C160.199 44 165.755 41.6984 169.851 37.6019C173.949 33.5054 176.25 27.9493 176.25 22.1558V22.1548Z" fill="black" fill-opacity="0.1" stroke="black" stroke-width="0.103759" stroke-miterlimit="1.5" stroke-linecap="round" stroke-linejoin="round"/>
<path fill-rule="evenodd" clip-rule="evenodd" d="M132.843 12.9197V18.6414H139.338L133.269 32.6748H148.114V27.0768H142.04L148.114 12.9197H132.843Z" fill="#FC6A03" stroke="black" stroke-width="0.103759" stroke-miterlimit="1.5" stroke-linecap="round" stroke-linejoin="round"/>
<path fill-rule="evenodd" clip-rule="evenodd" d="M116.948 12.9624H122.79V25.6409C122.79 25.6409 122.834 26.1228 122.863 26.2864C122.883 26.4012 122.918 26.5129 122.96 26.6206C123.005 26.7384 123.064 26.889 123.133 26.9898C123.198 27.0836 123.282 27.1664 123.378 27.2272C123.476 27.2891 123.604 27.328 123.721 27.3609C123.848 27.3958 124.014 27.4387 124.139 27.4387C124.255 27.4387 124.368 27.3958 124.477 27.3609C124.585 27.326 124.704 27.2781 124.792 27.2272C124.871 27.1823 124.946 27.1285 125.004 27.0586C125.074 26.9758 125.16 26.8481 125.21 26.7294C125.265 26.5997 125.297 26.4351 125.33 26.2864C125.361 26.1388 125.392 25.9592 125.404 25.8385C125.414 25.7457 125.404 25.6519 125.404 25.5591V12.9624H131.239V26.2864C131.239 26.2864 131.192 27.0586 131.126 27.4387C131.057 27.8298 130.974 28.2508 130.829 28.636C130.659 29.0829 130.378 29.6855 130.109 30.1195C129.857 30.5266 129.539 30.9117 129.214 31.2419C128.896 31.5641 128.542 31.8555 128.16 32.0989C127.761 32.3523 127.226 32.6007 126.819 32.7643C126.463 32.907 126.09 33.0058 125.715 33.0806C125.324 33.1584 124.885 33.2063 124.477 33.2313C124.073 33.2562 123.668 33.2562 123.265 33.2313C122.858 33.2063 122.429 33.1584 122.033 33.0806C121.645 33.0048 121.257 32.913 120.89 32.7643C120.486 32.6007 119.98 32.3523 119.605 32.0989C119.248 31.8575 118.908 31.5422 118.637 31.2419C118.381 30.9576 118.164 30.6343 117.978 30.3001C117.769 29.925 117.54 29.4491 117.388 28.9971C117.234 28.5372 117.135 27.9905 117.055 27.5385C116.981 27.1245 116.941 26.5867 116.909 26.2864C116.89 26.1038 116.864 25.7377 116.864 25.7377V12.9624H116.948Z" fill="#FC6A03" stroke="black" stroke-width="0.103759" stroke-miterlimit="1.5" stroke-linecap="round" stroke-linejoin="round"/>
<path fill-rule="evenodd" clip-rule="evenodd" d="M104.115 12.4546C104.243 12.4546 104.37 12.4506 104.498 12.4546C104.642 12.4606 104.826 12.4746 104.979 12.4875C105.124 12.5005 105.288 12.5205 105.414 12.5334C105.521 12.5454 105.634 12.5554 105.733 12.5703C105.827 12.5843 105.92 12.6053 106.013 12.6212C106.105 12.6372 106.203 12.6482 106.294 12.6681C106.382 12.6871 106.468 12.715 106.554 12.738C106.643 12.7609 106.747 12.7868 106.828 12.8058C106.899 12.8238 106.97 12.8357 107.041 12.8557C107.132 12.8826 107.266 12.9315 107.375 12.9644C107.482 12.9964 107.592 13.0163 107.698 13.0522C107.805 13.0871 107.924 13.14 108.026 13.1799C108.12 13.2168 108.216 13.2478 108.307 13.2907C108.41 13.3406 108.544 13.4254 108.643 13.4752C108.726 13.5171 108.817 13.5471 108.901 13.59C108.998 13.6399 109.125 13.7157 109.223 13.7705C109.312 13.8204 109.401 13.8683 109.488 13.9212C109.591 13.9851 109.737 14.0798 109.844 14.1527C109.941 14.2185 110.038 14.2844 110.132 14.3552C110.227 14.427 110.329 14.5138 110.417 14.5867C110.5 14.6535 110.581 14.7233 110.664 14.7892C110.754 14.862 110.866 14.9398 110.957 15.0196C111.045 15.0975 111.124 15.1863 111.207 15.2691C111.301 15.3638 111.421 15.4796 111.525 15.5873C111.629 15.6951 111.734 15.8088 111.83 15.9166C111.921 16.0183 112.008 16.1261 112.096 16.2298C112.194 16.3446 112.327 16.4872 112.416 16.6C112.494 16.6977 112.561 16.8045 112.632 16.9073C112.703 17.009 112.775 17.1098 112.843 17.2135C112.912 17.3193 112.979 17.429 113.044 17.5388C113.113 17.6545 113.19 17.7942 113.254 17.9069C113.311 18.0097 113.372 18.1095 113.424 18.2152C113.478 18.325 113.528 18.4527 113.581 18.5674C113.632 18.6811 113.69 18.7909 113.74 18.9046C113.79 19.0193 113.84 19.1341 113.879 19.2528C113.918 19.3715 113.937 19.4972 113.972 19.6179C114.013 19.7556 114.078 19.9442 114.12 20.0789C114.157 20.1936 114.2 20.3064 114.228 20.4231C114.259 20.5588 114.286 20.7393 114.312 20.891C114.338 21.0396 114.364 21.1973 114.385 21.3369C114.405 21.4666 114.421 21.5973 114.437 21.727C114.455 21.8747 114.486 22.0613 114.496 22.2219C114.505 22.3775 114.496 22.5531 114.496 22.6898C114.496 22.8065 114.501 22.9243 114.496 23.041C114.486 23.2485 114.455 23.7234 114.437 23.9329C114.426 24.0536 114.403 24.1744 114.385 24.2941C114.364 24.4328 114.339 24.6153 114.312 24.766C114.287 24.9106 114.259 25.0553 114.228 25.2C114.196 25.3446 114.157 25.4893 114.12 25.634C114.084 25.7806 114.048 25.9373 114.008 26.0749C113.97 26.2036 113.925 26.3293 113.879 26.4551C113.823 26.6067 113.747 26.8072 113.674 26.9798C113.598 27.1594 113.512 27.355 113.424 27.5316C113.338 27.7061 113.232 27.8947 113.145 28.0454C113.068 28.1781 112.983 28.3067 112.902 28.4364C112.816 28.5711 112.732 28.7228 112.632 28.8555C112.484 29.053 112.193 29.4052 112.009 29.6257C111.851 29.8142 111.697 30.0058 111.525 30.1794C111.323 30.3819 111.034 30.6463 110.801 30.8418C110.587 31.0224 110.329 31.206 110.132 31.3537C109.962 31.4804 109.797 31.614 109.618 31.7268C109.394 31.8685 109.04 32.076 108.785 32.2057C108.561 32.3214 108.304 32.4192 108.092 32.509C107.9 32.5898 107.71 32.6766 107.512 32.7424C107.267 32.8232 106.922 32.925 106.62 32.9958C106.315 33.0667 105.984 33.1275 105.681 33.1714C105.391 33.2143 105.099 33.2492 104.805 33.2602C104.403 33.2752 103.78 33.2961 103.272 33.2602C102.763 33.2233 102.254 33.1535 101.756 33.0417C101.247 32.928 100.708 32.7724 100.215 32.5768C99.7262 32.3813 99.2553 32.1368 98.8034 31.8655C98.3375 31.5851 97.8257 31.2289 97.4156 30.8947C97.0285 30.5805 96.6574 30.2412 96.3381 29.8601C95.9231 29.3663 95.2866 28.5302 94.9264 27.9286C94.6111 27.4028 94.3627 26.7663 94.1761 26.2505C94.0105 25.7936 93.8968 25.3167 93.808 24.8378C93.7192 24.3529 93.6693 23.7803 93.6414 23.3443C93.6174 22.9701 93.6164 22.595 93.6414 22.2219C93.6693 21.8019 93.7202 21.2841 93.808 20.8232C93.8978 20.3562 94.0215 19.8763 94.1761 19.4184C94.3328 18.9575 94.5164 18.4936 94.7448 18.0576C94.9833 17.6046 95.3155 17.0948 95.6038 16.6968C95.8672 16.3336 96.1655 15.9954 96.4778 15.6731C96.801 15.3389 97.1991 14.9757 97.5423 14.6944C97.8586 14.435 98.1908 14.1946 98.541 13.9831C98.9281 13.7496 99.4199 13.4872 99.8699 13.2907C100.312 13.0981 100.809 12.9265 101.236 12.8058C101.625 12.6961 102.033 12.6292 102.428 12.5703C102.818 12.5125 103.325 12.4746 103.606 12.4546C103.776 12.4436 103.966 12.4546 104.115 12.4546ZM103.904 18.2192H104.586L105.217 18.3988L105.709 18.5824L106.263 18.8547L106.593 19.1131L106.978 19.4074L107.282 19.7147L107.566 20.0879L107.806 20.4361L108.094 20.9958L108.286 21.5844L108.431 22.2698V22.9522C108.431 23.0709 108.44 23.2116 108.431 23.3313C108.423 23.4461 108.398 23.5588 108.377 23.6715C108.353 23.8032 108.32 23.9868 108.286 24.1225C108.256 24.2452 108.219 24.3669 108.178 24.4856C108.133 24.6133 108.083 24.757 108.02 24.8857C107.948 25.0294 107.849 25.201 107.751 25.3506C107.643 25.5132 107.51 25.7018 107.373 25.8624C107.227 26.034 107.041 26.2276 106.872 26.3802C106.71 26.5249 106.541 26.6656 106.356 26.7773C106.142 26.905 105.825 27.0527 105.593 27.1464C105.388 27.2283 105.176 27.2971 104.959 27.34C104.731 27.3859 104.47 27.4308 104.224 27.4218C103.879 27.4078 103.226 27.329 102.891 27.2602C102.654 27.2123 102.427 27.1195 102.211 27.0118C101.977 26.895 101.696 26.7145 101.489 26.5608C101.302 26.4201 101.109 26.2256 100.97 26.0869C100.86 25.9752 100.756 25.8564 100.663 25.7297C100.544 25.5691 100.374 25.3347 100.259 25.1202C100.135 24.8897 100.012 24.6133 99.9238 24.347C99.835 24.0806 99.7681 23.8012 99.7282 23.5219C99.6863 23.2335 99.6624 22.9103 99.6754 22.617C99.6883 22.3296 99.7442 22.0343 99.809 21.764C99.8719 21.5016 99.9547 21.2422 100.064 20.9958C100.184 20.7274 100.378 20.3842 100.528 20.1527C100.656 19.9562 100.812 19.7786 100.97 19.607C101.131 19.4334 101.318 19.2508 101.489 19.1131C101.648 18.9854 101.822 18.8757 102.001 18.7789C102.194 18.6742 102.426 18.5674 102.648 18.4876C102.876 18.4058 103.157 18.3339 103.367 18.289C103.543 18.2511 103.904 18.2192 103.904 18.2192Z" fill="#FC6A03" stroke="black" stroke-width="0.103759" stroke-miterlimit="1.5" stroke-linecap="round" stroke-linejoin="round"/>
<path d="M79.9438 34.2227C86.4517 34.2227 91.7274 28.9469 91.7274 22.439C91.7274 15.9311 86.4517 10.6554 79.9438 10.6554C73.4359 10.6554 68.1602 15.9311 68.1602 22.439C68.1602 28.9469 73.4359 34.2227 79.9438 34.2227Z" fill="#F9F7F7" stroke="black" stroke-width="0.831246" stroke-miterlimit="1.5" stroke-linecap="round" stroke-linejoin="round"/>
<path fill-rule="evenodd" clip-rule="evenodd" d="M78.3385 31.3687H72.7744V13.646H78.3385V19.654H81.552V13.646H87.1799V31.3687H81.552V24.8409H78.3385V31.3687ZM84.5909 29.2527V15.769H83.8417V21.8888H76.0757V15.769H75.3893V29.2527H76.0757V22.6201H83.8417V29.2527H84.5909Z" fill="black" stroke="black" stroke-width="0.103759" stroke-miterlimit="1.5" stroke-linecap="round" stroke-linejoin="round"/>
<path fill-rule="evenodd" clip-rule="evenodd" d="M52.1816 12.9624H67.1139V18.6352H62.5884V32.8192H56.7161V18.6352H52.1816V12.9624Z" fill="#FC6A03" stroke="black" stroke-width="0.103759" stroke-miterlimit="1.5" stroke-linecap="round" stroke-linejoin="round"/>
<path fill-rule="evenodd" clip-rule="evenodd" d="M50.6357 12.9624H44.9016L43.8893 13.1001L43.0667 13.3036L42.2868 13.574L41.5234 14.0529L40.8672 14.5816L40.3685 15.1553L39.9567 15.8247L39.6412 16.559L39.4034 17.3821L39.2793 18.3998V26.903L39.3429 27.7161L39.4034 28.2917L39.5788 28.8824L39.7854 29.5119L40.1226 30.1404L40.5936 30.8139L41.2263 31.4095L41.8078 31.8225L42.4031 32.1288L43.211 32.4241L43.9741 32.6177L44.6307 32.7264L45.3389 32.7823H50.6357V27.1434H46.1294L45.458 27.0077L45.1163 26.7354L45.0177 26.469V26.1946V25.9442L45.1163 25.6509L45.3389 25.3596L45.5865 25.2359L45.9423 25.156H50.2446V20.6595H46.6694H46.2943L45.9423 20.5747L45.6922 20.446L45.458 20.2205L45.3389 19.8983V19.5581L45.4109 19.171L45.6922 18.9185L45.9423 18.734L46.2943 18.6482H50.6357V12.9624Z" fill="#FC6A03" stroke="black" stroke-width="0.103759" stroke-miterlimit="1.5" stroke-linecap="round" stroke-linejoin="round"/>
<path fill-rule="evenodd" clip-rule="evenodd" d="M29.2822 12.9624V26.5817L29.4543 27.6911L29.728 28.6878L30.2343 29.7055L30.7093 30.4817L31.3375 31.1401L32.025 31.6918L32.7922 32.1169L33.5303 32.4242L34.288 32.6027L35.1553 32.7414H37.6299V30.9695V28.6878V27.0866H36.4755L36.0375 27.0436L35.8205 26.9758L35.5588 26.8341L35.3308 26.5817L35.2001 26.1976L35.1553 25.6868V25.0972V24.7061V23.1417V21.2152V19.5122V17.42V12.9624H29.2822Z" fill="#FC6A03" stroke="black" stroke-width="0.103759" stroke-miterlimit="1.5" stroke-linecap="round" stroke-linejoin="round"/>
</svg>
