<svg width="15" height="15" viewBox="0 0 15 15" fill="none" xmlns="http://www.w3.org/2000/svg">
<path d="M11.875 0.62499V2.28937C10.9744 2.55999 10.3125 3.38751 10.3125 4.37499C10.3125 5.36247 10.9744 6.18937 11.875 6.4606V14.375C11.875 14.72 12.155 15 12.5 15C12.845 15 13.125 14.72 13.125 14.375V6.46063C14.0256 6.19002 14.6875 5.3625 14.6875 4.37502C14.6875 3.38754 14.0256 2.56063 13.125 2.2894V0.625019C13.125 0.279404 12.845 2.86102e-05 12.5 2.86102e-05C12.155 2.86102e-05 11.875 0.279374 11.875 0.62499ZM13.4375 4.37499C13.4375 4.89187 13.0169 5.31249 12.5 5.31249C11.9831 5.31249 11.5625 4.89187 11.5625 4.37499C11.5625 3.8581 11.9831 3.43749 12.5 3.43749C13.0169 3.43749 13.4375 3.85813 13.4375 4.37499Z" fill="#FC6A03"/>
<path d="M1.87499 0.62499V2.28938C0.974375 2.56064 0.3125 3.38751 0.3125 4.37499C0.3125 5.36247 0.974375 6.18937 1.87499 6.46064L1.87499 14.375C1.87499 14.72 2.15498 15 2.49998 15C2.84498 15 3.12497 14.72 3.12497 14.375L3.12497 6.46064C4.02562 6.18937 4.68749 5.3625 4.68749 4.37499C4.68749 3.38748 4.02562 2.56061 3.125 2.28938V0.62499C3.125 0.279375 2.84501 0 2.50001 0C2.15501 0 1.87499 0.279375 1.87499 0.62499ZM3.43748 4.37499C3.43748 4.89188 3.01687 5.31249 2.49998 5.31249C1.9831 5.31249 1.56248 4.89188 1.56248 4.37499C1.56248 3.85811 1.9831 3.43749 2.49998 3.43749C3.01687 3.43749 3.43748 3.85814 3.43748 4.37499Z" fill="#FC6A03"/>
<path d="M6.87499 0.62499L6.87499 8.53936C5.97438 8.81062 5.3125 9.6375 5.3125 10.625C5.3125 11.6125 5.97438 12.4394 6.87499 12.7106V14.375C6.87499 14.72 7.15498 15 7.49998 15C7.84498 15 8.12497 14.72 8.12497 14.375V12.7106C9.02559 12.4394 9.68746 11.6125 9.68746 10.625C9.68746 9.63753 9.02559 8.81062 8.12497 8.53939V0.625019C8.12497 0.279404 7.84498 2.86102e-05 7.49998 2.86102e-05C7.15498 -9.53674e-07 6.87499 0.279374 6.87499 0.62499ZM8.43748 10.625C8.43748 11.1419 8.01687 11.5625 7.49998 11.5625C6.9831 11.5625 6.56248 11.1419 6.56248 10.625C6.56248 10.1081 6.9831 9.68751 7.49998 9.68751C8.01687 9.68751 8.43748 10.1081 8.43748 10.625Z" fill="#FC6A03"/>
</svg>
